<mxfile host="app.diagrams.net" modified="2023-02-27T05:51:03.495Z" agent="5.0 (Macintosh; Intel Mac OS X 10_15_7) AppleWebKit/537.36 (KHTML, like Gecko) Chrome/109.0.0.0 Safari/537.36" version="20.8.5" etag="GVOs0DnChRtgRyo51Mxn" type="github">
  <diagram id="zY4P034wEPN2kZs8GRx3" name="第 1 页">
    <mxGraphModel dx="1026" dy="1780" grid="1" gridSize="10" guides="1" tooltips="1" connect="1" arrows="1" fold="1" page="1" pageScale="1" pageWidth="827" pageHeight="1169" math="0" shadow="0">
      <root>
        <mxCell id="0" />
        <mxCell id="1" parent="0" />
        <mxCell id="yz1jvYl0OhVdzaFBh-Qn-1" value="" style="rounded=1;whiteSpace=wrap;html=1;" vertex="1" parent="1">
          <mxGeometry x="80" y="-150" width="640" height="170" as="geometry" />
        </mxCell>
        <mxCell id="yz1jvYl0OhVdzaFBh-Qn-9" value="订单收货信息" style="swimlane;fontStyle=0;childLayout=stackLayout;horizontal=1;startSize=30;horizontalStack=0;resizeParent=1;resizeParentMax=0;resizeLast=0;collapsible=1;marginBottom=0;whiteSpace=wrap;html=1;" vertex="1" parent="1">
          <mxGeometry x="90" y="320" width="140" height="330" as="geometry" />
        </mxCell>
        <mxCell id="yz1jvYl0OhVdzaFBh-Qn-34" value="订单号" style="text;strokeColor=none;fillColor=none;align=left;verticalAlign=middle;spacingLeft=4;spacingRight=4;overflow=hidden;points=[[0,0.5],[1,0.5]];portConstraint=eastwest;rotatable=0;whiteSpace=wrap;html=1;" vertex="1" parent="yz1jvYl0OhVdzaFBh-Qn-9">
          <mxGeometry y="30" width="140" height="30" as="geometry" />
        </mxCell>
        <mxCell id="yz1jvYl0OhVdzaFBh-Qn-80" value="客户" style="text;strokeColor=none;fillColor=none;align=left;verticalAlign=middle;spacingLeft=4;spacingRight=4;overflow=hidden;points=[[0,0.5],[1,0.5]];portConstraint=eastwest;rotatable=0;whiteSpace=wrap;html=1;" vertex="1" parent="yz1jvYl0OhVdzaFBh-Qn-9">
          <mxGeometry y="60" width="140" height="30" as="geometry" />
        </mxCell>
        <mxCell id="yz1jvYl0OhVdzaFBh-Qn-60" value="省" style="text;strokeColor=none;fillColor=none;align=left;verticalAlign=middle;spacingLeft=4;spacingRight=4;overflow=hidden;points=[[0,0.5],[1,0.5]];portConstraint=eastwest;rotatable=0;whiteSpace=wrap;html=1;" vertex="1" parent="yz1jvYl0OhVdzaFBh-Qn-9">
          <mxGeometry y="90" width="140" height="30" as="geometry" />
        </mxCell>
        <mxCell id="yz1jvYl0OhVdzaFBh-Qn-59" value="市" style="text;strokeColor=none;fillColor=none;align=left;verticalAlign=middle;spacingLeft=4;spacingRight=4;overflow=hidden;points=[[0,0.5],[1,0.5]];portConstraint=eastwest;rotatable=0;whiteSpace=wrap;html=1;" vertex="1" parent="yz1jvYl0OhVdzaFBh-Qn-9">
          <mxGeometry y="120" width="140" height="30" as="geometry" />
        </mxCell>
        <mxCell id="yz1jvYl0OhVdzaFBh-Qn-58" value="区" style="text;strokeColor=none;fillColor=none;align=left;verticalAlign=middle;spacingLeft=4;spacingRight=4;overflow=hidden;points=[[0,0.5],[1,0.5]];portConstraint=eastwest;rotatable=0;whiteSpace=wrap;html=1;" vertex="1" parent="yz1jvYl0OhVdzaFBh-Qn-9">
          <mxGeometry y="150" width="140" height="30" as="geometry" />
        </mxCell>
        <mxCell id="yz1jvYl0OhVdzaFBh-Qn-10" value="收货地址" style="text;strokeColor=none;fillColor=none;align=left;verticalAlign=middle;spacingLeft=4;spacingRight=4;overflow=hidden;points=[[0,0.5],[1,0.5]];portConstraint=eastwest;rotatable=0;whiteSpace=wrap;html=1;" vertex="1" parent="yz1jvYl0OhVdzaFBh-Qn-9">
          <mxGeometry y="180" width="140" height="30" as="geometry" />
        </mxCell>
        <mxCell id="yz1jvYl0OhVdzaFBh-Qn-11" value="收货人" style="text;strokeColor=none;fillColor=none;align=left;verticalAlign=middle;spacingLeft=4;spacingRight=4;overflow=hidden;points=[[0,0.5],[1,0.5]];portConstraint=eastwest;rotatable=0;whiteSpace=wrap;html=1;" vertex="1" parent="yz1jvYl0OhVdzaFBh-Qn-9">
          <mxGeometry y="210" width="140" height="30" as="geometry" />
        </mxCell>
        <mxCell id="yz1jvYl0OhVdzaFBh-Qn-12" value="收货联系方式" style="text;strokeColor=none;fillColor=none;align=left;verticalAlign=middle;spacingLeft=4;spacingRight=4;overflow=hidden;points=[[0,0.5],[1,0.5]];portConstraint=eastwest;rotatable=0;whiteSpace=wrap;html=1;" vertex="1" parent="yz1jvYl0OhVdzaFBh-Qn-9">
          <mxGeometry y="240" width="140" height="30" as="geometry" />
        </mxCell>
        <mxCell id="yz1jvYl0OhVdzaFBh-Qn-103" value="商品" style="text;strokeColor=none;fillColor=none;align=left;verticalAlign=middle;spacingLeft=4;spacingRight=4;overflow=hidden;points=[[0,0.5],[1,0.5]];portConstraint=eastwest;rotatable=0;whiteSpace=wrap;html=1;" vertex="1" parent="yz1jvYl0OhVdzaFBh-Qn-9">
          <mxGeometry y="270" width="140" height="30" as="geometry" />
        </mxCell>
        <mxCell id="yz1jvYl0OhVdzaFBh-Qn-71" value="运营区域" style="text;strokeColor=none;fillColor=none;align=left;verticalAlign=middle;spacingLeft=4;spacingRight=4;overflow=hidden;points=[[0,0.5],[1,0.5]];portConstraint=eastwest;rotatable=0;whiteSpace=wrap;html=1;fontColor=#e00606;" vertex="1" parent="yz1jvYl0OhVdzaFBh-Qn-9">
          <mxGeometry y="300" width="140" height="30" as="geometry" />
        </mxCell>
        <mxCell id="yz1jvYl0OhVdzaFBh-Qn-101" style="edgeStyle=orthogonalEdgeStyle;rounded=0;orthogonalLoop=1;jettySize=auto;html=1;exitX=0.5;exitY=0;exitDx=0;exitDy=0;entryX=0.5;entryY=1;entryDx=0;entryDy=0;entryPerimeter=0;endArrow=none;endFill=0;" edge="1" parent="1" source="yz1jvYl0OhVdzaFBh-Qn-13" target="yz1jvYl0OhVdzaFBh-Qn-100">
          <mxGeometry relative="1" as="geometry" />
        </mxCell>
        <mxCell id="yz1jvYl0OhVdzaFBh-Qn-13" value="城配仓" style="swimlane;fontStyle=0;childLayout=stackLayout;horizontal=1;startSize=30;horizontalStack=0;resizeParent=1;resizeParentMax=0;resizeLast=0;collapsible=1;marginBottom=0;whiteSpace=wrap;html=1;" vertex="1" parent="1">
          <mxGeometry x="660" y="340" width="140" height="120" as="geometry" />
        </mxCell>
        <mxCell id="yz1jvYl0OhVdzaFBh-Qn-14" value="地址" style="text;strokeColor=none;fillColor=none;align=left;verticalAlign=middle;spacingLeft=4;spacingRight=4;overflow=hidden;points=[[0,0.5],[1,0.5]];portConstraint=eastwest;rotatable=0;whiteSpace=wrap;html=1;" vertex="1" parent="yz1jvYl0OhVdzaFBh-Qn-13">
          <mxGeometry y="30" width="140" height="30" as="geometry" />
        </mxCell>
        <mxCell id="yz1jvYl0OhVdzaFBh-Qn-15" value="围栏" style="text;strokeColor=none;fillColor=none;align=left;verticalAlign=middle;spacingLeft=4;spacingRight=4;overflow=hidden;points=[[0,0.5],[1,0.5]];portConstraint=eastwest;rotatable=0;whiteSpace=wrap;html=1;" vertex="1" parent="yz1jvYl0OhVdzaFBh-Qn-13">
          <mxGeometry y="60" width="140" height="30" as="geometry" />
        </mxCell>
        <mxCell id="yz1jvYl0OhVdzaFBh-Qn-104" value="停运时间" style="text;strokeColor=none;fillColor=none;align=left;verticalAlign=middle;spacingLeft=4;spacingRight=4;overflow=hidden;points=[[0,0.5],[1,0.5]];portConstraint=eastwest;rotatable=0;whiteSpace=wrap;html=1;" vertex="1" parent="yz1jvYl0OhVdzaFBh-Qn-13">
          <mxGeometry y="90" width="140" height="30" as="geometry" />
        </mxCell>
        <mxCell id="yz1jvYl0OhVdzaFBh-Qn-20" value="库存仓" style="swimlane;fontStyle=0;childLayout=stackLayout;horizontal=1;startSize=30;horizontalStack=0;resizeParent=1;resizeParentMax=0;resizeLast=0;collapsible=1;marginBottom=0;whiteSpace=wrap;html=1;" vertex="1" parent="1">
          <mxGeometry x="970" y="340" width="140" height="90" as="geometry" />
        </mxCell>
        <mxCell id="yz1jvYl0OhVdzaFBh-Qn-21" value="地址" style="text;strokeColor=none;fillColor=none;align=left;verticalAlign=middle;spacingLeft=4;spacingRight=4;overflow=hidden;points=[[0,0.5],[1,0.5]];portConstraint=eastwest;rotatable=0;whiteSpace=wrap;html=1;" vertex="1" parent="yz1jvYl0OhVdzaFBh-Qn-20">
          <mxGeometry y="30" width="140" height="30" as="geometry" />
        </mxCell>
        <mxCell id="yz1jvYl0OhVdzaFBh-Qn-39" value="库存" style="text;strokeColor=none;fillColor=none;align=left;verticalAlign=middle;spacingLeft=4;spacingRight=4;overflow=hidden;points=[[0,0.5],[1,0.5]];portConstraint=eastwest;rotatable=0;whiteSpace=wrap;html=1;" vertex="1" parent="yz1jvYl0OhVdzaFBh-Qn-20">
          <mxGeometry y="60" width="140" height="30" as="geometry" />
        </mxCell>
        <mxCell id="yz1jvYl0OhVdzaFBh-Qn-52" style="edgeStyle=orthogonalEdgeStyle;rounded=0;orthogonalLoop=1;jettySize=auto;html=1;exitX=0.5;exitY=0;exitDx=0;exitDy=0;endArrow=none;endFill=0;" edge="1" parent="1" source="yz1jvYl0OhVdzaFBh-Qn-24" target="yz1jvYl0OhVdzaFBh-Qn-36">
          <mxGeometry relative="1" as="geometry" />
        </mxCell>
        <mxCell id="yz1jvYl0OhVdzaFBh-Qn-24" value="订单商品" style="swimlane;fontStyle=0;childLayout=stackLayout;horizontal=1;startSize=30;horizontalStack=0;resizeParent=1;resizeParentMax=0;resizeLast=0;collapsible=1;marginBottom=0;whiteSpace=wrap;html=1;" vertex="1" parent="1">
          <mxGeometry x="490" y="600" width="140" height="60" as="geometry" />
        </mxCell>
        <mxCell id="yz1jvYl0OhVdzaFBh-Qn-26" value="商品" style="text;strokeColor=none;fillColor=none;align=left;verticalAlign=middle;spacingLeft=4;spacingRight=4;overflow=hidden;points=[[0,0.5],[1,0.5]];portConstraint=eastwest;rotatable=0;whiteSpace=wrap;html=1;" vertex="1" parent="yz1jvYl0OhVdzaFBh-Qn-24">
          <mxGeometry y="30" width="140" height="30" as="geometry" />
        </mxCell>
        <mxCell id="yz1jvYl0OhVdzaFBh-Qn-35" value="商品货品映射" style="swimlane;fontStyle=0;childLayout=stackLayout;horizontal=1;startSize=30;horizontalStack=0;resizeParent=1;resizeParentMax=0;resizeLast=0;collapsible=1;marginBottom=0;whiteSpace=wrap;html=1;" vertex="1" parent="1">
          <mxGeometry x="650" y="480" width="140" height="90" as="geometry" />
        </mxCell>
        <mxCell id="yz1jvYl0OhVdzaFBh-Qn-36" value="商品" style="text;strokeColor=none;fillColor=none;align=left;verticalAlign=middle;spacingLeft=4;spacingRight=4;overflow=hidden;points=[[0,0.5],[1,0.5]];portConstraint=eastwest;rotatable=0;whiteSpace=wrap;html=1;" vertex="1" parent="yz1jvYl0OhVdzaFBh-Qn-35">
          <mxGeometry y="30" width="140" height="30" as="geometry" />
        </mxCell>
        <mxCell id="yz1jvYl0OhVdzaFBh-Qn-37" value="货品" style="text;strokeColor=none;fillColor=none;align=left;verticalAlign=middle;spacingLeft=4;spacingRight=4;overflow=hidden;points=[[0,0.5],[1,0.5]];portConstraint=eastwest;rotatable=0;whiteSpace=wrap;html=1;" vertex="1" parent="yz1jvYl0OhVdzaFBh-Qn-35">
          <mxGeometry y="60" width="140" height="30" as="geometry" />
        </mxCell>
        <mxCell id="yz1jvYl0OhVdzaFBh-Qn-40" value="实物库存" style="swimlane;fontStyle=0;childLayout=stackLayout;horizontal=1;startSize=30;horizontalStack=0;resizeParent=1;resizeParentMax=0;resizeLast=0;collapsible=1;marginBottom=0;whiteSpace=wrap;html=1;" vertex="1" parent="1">
          <mxGeometry x="980" y="585" width="140" height="120" as="geometry" />
        </mxCell>
        <mxCell id="yz1jvYl0OhVdzaFBh-Qn-41" value="库存仓" style="text;strokeColor=none;fillColor=none;align=left;verticalAlign=middle;spacingLeft=4;spacingRight=4;overflow=hidden;points=[[0,0.5],[1,0.5]];portConstraint=eastwest;rotatable=0;whiteSpace=wrap;html=1;" vertex="1" parent="yz1jvYl0OhVdzaFBh-Qn-40">
          <mxGeometry y="30" width="140" height="30" as="geometry" />
        </mxCell>
        <mxCell id="yz1jvYl0OhVdzaFBh-Qn-42" value="货品" style="text;strokeColor=none;fillColor=none;align=left;verticalAlign=middle;spacingLeft=4;spacingRight=4;overflow=hidden;points=[[0,0.5],[1,0.5]];portConstraint=eastwest;rotatable=0;whiteSpace=wrap;html=1;" vertex="1" parent="yz1jvYl0OhVdzaFBh-Qn-40">
          <mxGeometry y="60" width="140" height="30" as="geometry" />
        </mxCell>
        <mxCell id="yz1jvYl0OhVdzaFBh-Qn-43" value="可用数量" style="text;strokeColor=none;fillColor=none;align=left;verticalAlign=middle;spacingLeft=4;spacingRight=4;overflow=hidden;points=[[0,0.5],[1,0.5]];portConstraint=eastwest;rotatable=0;whiteSpace=wrap;html=1;" vertex="1" parent="yz1jvYl0OhVdzaFBh-Qn-40">
          <mxGeometry y="90" width="140" height="30" as="geometry" />
        </mxCell>
        <mxCell id="yz1jvYl0OhVdzaFBh-Qn-44" value="城配仓库存仓映射" style="swimlane;fontStyle=0;childLayout=stackLayout;horizontal=1;startSize=30;horizontalStack=0;resizeParent=1;resizeParentMax=0;resizeLast=0;collapsible=1;marginBottom=0;whiteSpace=wrap;html=1;" vertex="1" parent="1">
          <mxGeometry x="810" y="230" width="140" height="90" as="geometry" />
        </mxCell>
        <mxCell id="yz1jvYl0OhVdzaFBh-Qn-45" value="城配仓" style="text;strokeColor=none;fillColor=none;align=left;verticalAlign=middle;spacingLeft=4;spacingRight=4;overflow=hidden;points=[[0,0.5],[1,0.5]];portConstraint=eastwest;rotatable=0;whiteSpace=wrap;html=1;" vertex="1" parent="yz1jvYl0OhVdzaFBh-Qn-44">
          <mxGeometry y="30" width="140" height="30" as="geometry" />
        </mxCell>
        <mxCell id="yz1jvYl0OhVdzaFBh-Qn-46" value="库存仓" style="text;strokeColor=none;fillColor=none;align=left;verticalAlign=middle;spacingLeft=4;spacingRight=4;overflow=hidden;points=[[0,0.5],[1,0.5]];portConstraint=eastwest;rotatable=0;whiteSpace=wrap;html=1;" vertex="1" parent="yz1jvYl0OhVdzaFBh-Qn-44">
          <mxGeometry y="60" width="140" height="30" as="geometry" />
        </mxCell>
        <mxCell id="yz1jvYl0OhVdzaFBh-Qn-49" style="edgeStyle=orthogonalEdgeStyle;rounded=0;orthogonalLoop=1;jettySize=auto;html=1;exitX=0.75;exitY=0;exitDx=0;exitDy=0;endArrow=none;endFill=0;" edge="1" parent="1" source="yz1jvYl0OhVdzaFBh-Qn-13" target="yz1jvYl0OhVdzaFBh-Qn-45">
          <mxGeometry relative="1" as="geometry" />
        </mxCell>
        <mxCell id="yz1jvYl0OhVdzaFBh-Qn-50" style="edgeStyle=orthogonalEdgeStyle;rounded=0;orthogonalLoop=1;jettySize=auto;html=1;exitX=1;exitY=0.5;exitDx=0;exitDy=0;entryX=0.5;entryY=0;entryDx=0;entryDy=0;endArrow=none;endFill=0;" edge="1" parent="1" source="yz1jvYl0OhVdzaFBh-Qn-45" target="yz1jvYl0OhVdzaFBh-Qn-20">
          <mxGeometry relative="1" as="geometry" />
        </mxCell>
        <mxCell id="yz1jvYl0OhVdzaFBh-Qn-53" style="edgeStyle=orthogonalEdgeStyle;rounded=0;orthogonalLoop=1;jettySize=auto;html=1;exitX=1;exitY=0.5;exitDx=0;exitDy=0;endArrow=none;endFill=0;" edge="1" parent="1" source="yz1jvYl0OhVdzaFBh-Qn-36" target="yz1jvYl0OhVdzaFBh-Qn-73">
          <mxGeometry relative="1" as="geometry" />
        </mxCell>
        <mxCell id="yz1jvYl0OhVdzaFBh-Qn-54" value="围栏" style="swimlane;fontStyle=0;childLayout=stackLayout;horizontal=1;startSize=30;horizontalStack=0;resizeParent=1;resizeParentMax=0;resizeLast=0;collapsible=1;marginBottom=0;whiteSpace=wrap;html=1;" vertex="1" parent="1">
          <mxGeometry x="480" y="240" width="140" height="210" as="geometry" />
        </mxCell>
        <mxCell id="yz1jvYl0OhVdzaFBh-Qn-55" value="城配仓" style="text;strokeColor=none;fillColor=none;align=left;verticalAlign=middle;spacingLeft=4;spacingRight=4;overflow=hidden;points=[[0,0.5],[1,0.5]];portConstraint=eastwest;rotatable=0;whiteSpace=wrap;html=1;" vertex="1" parent="yz1jvYl0OhVdzaFBh-Qn-54">
          <mxGeometry y="30" width="140" height="30" as="geometry" />
        </mxCell>
        <mxCell id="yz1jvYl0OhVdzaFBh-Qn-56" value="配送周期" style="text;strokeColor=none;fillColor=none;align=left;verticalAlign=middle;spacingLeft=4;spacingRight=4;overflow=hidden;points=[[0,0.5],[1,0.5]];portConstraint=eastwest;rotatable=0;whiteSpace=wrap;html=1;" vertex="1" parent="yz1jvYl0OhVdzaFBh-Qn-54">
          <mxGeometry y="60" width="140" height="30" as="geometry" />
        </mxCell>
        <mxCell id="yz1jvYl0OhVdzaFBh-Qn-57" value="省" style="text;strokeColor=none;fillColor=none;align=left;verticalAlign=middle;spacingLeft=4;spacingRight=4;overflow=hidden;points=[[0,0.5],[1,0.5]];portConstraint=eastwest;rotatable=0;whiteSpace=wrap;html=1;" vertex="1" parent="yz1jvYl0OhVdzaFBh-Qn-54">
          <mxGeometry y="90" width="140" height="30" as="geometry" />
        </mxCell>
        <mxCell id="yz1jvYl0OhVdzaFBh-Qn-66" value="市" style="text;strokeColor=none;fillColor=none;align=left;verticalAlign=middle;spacingLeft=4;spacingRight=4;overflow=hidden;points=[[0,0.5],[1,0.5]];portConstraint=eastwest;rotatable=0;whiteSpace=wrap;html=1;" vertex="1" parent="yz1jvYl0OhVdzaFBh-Qn-54">
          <mxGeometry y="120" width="140" height="30" as="geometry" />
        </mxCell>
        <mxCell id="yz1jvYl0OhVdzaFBh-Qn-102" value="区" style="text;strokeColor=none;fillColor=none;align=left;verticalAlign=middle;spacingLeft=4;spacingRight=4;overflow=hidden;points=[[0,0.5],[1,0.5]];portConstraint=eastwest;rotatable=0;whiteSpace=wrap;html=1;" vertex="1" parent="yz1jvYl0OhVdzaFBh-Qn-54">
          <mxGeometry y="150" width="140" height="30" as="geometry" />
        </mxCell>
        <mxCell id="yz1jvYl0OhVdzaFBh-Qn-67" value="运营区域" style="text;strokeColor=none;fillColor=none;align=left;verticalAlign=middle;spacingLeft=4;spacingRight=4;overflow=hidden;points=[[0,0.5],[1,0.5]];portConstraint=eastwest;rotatable=0;whiteSpace=wrap;html=1;fontColor=#d80e0e;" vertex="1" parent="yz1jvYl0OhVdzaFBh-Qn-54">
          <mxGeometry y="180" width="140" height="30" as="geometry" />
        </mxCell>
        <mxCell id="yz1jvYl0OhVdzaFBh-Qn-68" style="edgeStyle=orthogonalEdgeStyle;rounded=0;orthogonalLoop=1;jettySize=auto;html=1;exitX=1;exitY=0.5;exitDx=0;exitDy=0;entryX=0;entryY=0.5;entryDx=0;entryDy=0;endArrow=none;endFill=0;" edge="1" parent="1" source="yz1jvYl0OhVdzaFBh-Qn-59" target="yz1jvYl0OhVdzaFBh-Qn-54">
          <mxGeometry relative="1" as="geometry" />
        </mxCell>
        <mxCell id="yz1jvYl0OhVdzaFBh-Qn-69" style="edgeStyle=orthogonalEdgeStyle;rounded=0;orthogonalLoop=1;jettySize=auto;html=1;exitX=1;exitY=0.5;exitDx=0;exitDy=0;entryX=0;entryY=0.5;entryDx=0;entryDy=0;endArrow=none;endFill=0;" edge="1" parent="1" source="yz1jvYl0OhVdzaFBh-Qn-57" target="yz1jvYl0OhVdzaFBh-Qn-14">
          <mxGeometry relative="1" as="geometry" />
        </mxCell>
        <mxCell id="yz1jvYl0OhVdzaFBh-Qn-70" style="edgeStyle=orthogonalEdgeStyle;rounded=0;orthogonalLoop=1;jettySize=auto;html=1;exitX=1;exitY=0.5;exitDx=0;exitDy=0;entryX=1;entryY=0.5;entryDx=0;entryDy=0;endArrow=none;endFill=0;" edge="1" parent="1" source="yz1jvYl0OhVdzaFBh-Qn-21" target="yz1jvYl0OhVdzaFBh-Qn-42">
          <mxGeometry relative="1" as="geometry" />
        </mxCell>
        <mxCell id="yz1jvYl0OhVdzaFBh-Qn-72" style="edgeStyle=orthogonalEdgeStyle;rounded=0;orthogonalLoop=1;jettySize=auto;html=1;exitX=1;exitY=0.5;exitDx=0;exitDy=0;endArrow=none;endFill=0;" edge="1" parent="1" source="yz1jvYl0OhVdzaFBh-Qn-71" target="yz1jvYl0OhVdzaFBh-Qn-26">
          <mxGeometry relative="1" as="geometry" />
        </mxCell>
        <mxCell id="yz1jvYl0OhVdzaFBh-Qn-73" value="货品" style="swimlane;fontStyle=0;childLayout=stackLayout;horizontal=1;startSize=30;horizontalStack=0;resizeParent=1;resizeParentMax=0;resizeLast=0;collapsible=1;marginBottom=0;whiteSpace=wrap;html=1;" vertex="1" parent="1">
          <mxGeometry x="790" y="600" width="140" height="60" as="geometry" />
        </mxCell>
        <mxCell id="yz1jvYl0OhVdzaFBh-Qn-74" value="货品" style="text;strokeColor=none;fillColor=none;align=left;verticalAlign=middle;spacingLeft=4;spacingRight=4;overflow=hidden;points=[[0,0.5],[1,0.5]];portConstraint=eastwest;rotatable=0;whiteSpace=wrap;html=1;" vertex="1" parent="yz1jvYl0OhVdzaFBh-Qn-73">
          <mxGeometry y="30" width="140" height="30" as="geometry" />
        </mxCell>
        <mxCell id="yz1jvYl0OhVdzaFBh-Qn-77" style="edgeStyle=orthogonalEdgeStyle;rounded=0;orthogonalLoop=1;jettySize=auto;html=1;exitX=1;exitY=0.5;exitDx=0;exitDy=0;endArrow=none;endFill=0;" edge="1" parent="1" source="yz1jvYl0OhVdzaFBh-Qn-74" target="yz1jvYl0OhVdzaFBh-Qn-42">
          <mxGeometry relative="1" as="geometry" />
        </mxCell>
        <mxCell id="yz1jvYl0OhVdzaFBh-Qn-78" value="" style="edgeStyle=orthogonalEdgeStyle;rounded=0;orthogonalLoop=1;jettySize=auto;html=1;endArrow=none;endFill=0;" edge="1" parent="1" source="yz1jvYl0OhVdzaFBh-Qn-71" target="yz1jvYl0OhVdzaFBh-Qn-26">
          <mxGeometry relative="1" as="geometry" />
        </mxCell>
        <mxCell id="yz1jvYl0OhVdzaFBh-Qn-81" value="客户收货配置(contract)" style="swimlane;fontStyle=0;childLayout=stackLayout;horizontal=1;startSize=30;horizontalStack=0;resizeParent=1;resizeParentMax=0;resizeLast=0;collapsible=1;marginBottom=0;whiteSpace=wrap;html=1;" vertex="1" parent="1">
          <mxGeometry x="300" y="110" width="140" height="150" as="geometry" />
        </mxCell>
        <mxCell id="yz1jvYl0OhVdzaFBh-Qn-93" value="客户" style="text;strokeColor=none;fillColor=none;align=left;verticalAlign=middle;spacingLeft=4;spacingRight=4;overflow=hidden;points=[[0,0.5],[1,0.5]];portConstraint=eastwest;rotatable=0;whiteSpace=wrap;html=1;" vertex="1" parent="yz1jvYl0OhVdzaFBh-Qn-81">
          <mxGeometry y="30" width="140" height="30" as="geometry" />
        </mxCell>
        <mxCell id="yz1jvYl0OhVdzaFBh-Qn-95" value="省市区地址" style="text;strokeColor=none;fillColor=none;align=left;verticalAlign=middle;spacingLeft=4;spacingRight=4;overflow=hidden;points=[[0,0.5],[1,0.5]];portConstraint=eastwest;rotatable=0;whiteSpace=wrap;html=1;" vertex="1" parent="yz1jvYl0OhVdzaFBh-Qn-81">
          <mxGeometry y="60" width="140" height="30" as="geometry" />
        </mxCell>
        <mxCell id="yz1jvYl0OhVdzaFBh-Qn-92" value="城配仓" style="text;strokeColor=none;fillColor=none;align=left;verticalAlign=middle;spacingLeft=4;spacingRight=4;overflow=hidden;points=[[0,0.5],[1,0.5]];portConstraint=eastwest;rotatable=0;whiteSpace=wrap;html=1;" vertex="1" parent="yz1jvYl0OhVdzaFBh-Qn-81">
          <mxGeometry y="90" width="140" height="30" as="geometry" />
        </mxCell>
        <mxCell id="yz1jvYl0OhVdzaFBh-Qn-83" value="配送周期" style="text;strokeColor=none;fillColor=none;align=left;verticalAlign=middle;spacingLeft=4;spacingRight=4;overflow=hidden;points=[[0,0.5],[1,0.5]];portConstraint=eastwest;rotatable=0;whiteSpace=wrap;html=1;" vertex="1" parent="yz1jvYl0OhVdzaFBh-Qn-81">
          <mxGeometry y="120" width="140" height="30" as="geometry" />
        </mxCell>
        <mxCell id="yz1jvYl0OhVdzaFBh-Qn-91" style="edgeStyle=orthogonalEdgeStyle;rounded=0;orthogonalLoop=1;jettySize=auto;html=1;exitX=1;exitY=0.5;exitDx=0;exitDy=0;entryX=0;entryY=0.5;entryDx=0;entryDy=0;endArrow=none;endFill=0;" edge="1" parent="1" source="yz1jvYl0OhVdzaFBh-Qn-80" target="yz1jvYl0OhVdzaFBh-Qn-81">
          <mxGeometry relative="1" as="geometry" />
        </mxCell>
        <mxCell id="yz1jvYl0OhVdzaFBh-Qn-96" style="edgeStyle=orthogonalEdgeStyle;rounded=0;orthogonalLoop=1;jettySize=auto;html=1;exitX=1;exitY=0.5;exitDx=0;exitDy=0;entryX=0.25;entryY=0;entryDx=0;entryDy=0;endArrow=none;endFill=0;" edge="1" parent="1" source="yz1jvYl0OhVdzaFBh-Qn-95" target="yz1jvYl0OhVdzaFBh-Qn-13">
          <mxGeometry relative="1" as="geometry" />
        </mxCell>
        <mxCell id="yz1jvYl0OhVdzaFBh-Qn-97" value="城配仓停运周期" style="swimlane;fontStyle=0;childLayout=stackLayout;horizontal=1;startSize=30;horizontalStack=0;resizeParent=1;resizeParentMax=0;resizeLast=0;collapsible=1;marginBottom=0;whiteSpace=wrap;html=1;" vertex="1" parent="1">
          <mxGeometry x="720" y="60" width="140" height="120" as="geometry" />
        </mxCell>
        <mxCell id="yz1jvYl0OhVdzaFBh-Qn-98" value="城配仓" style="text;strokeColor=none;fillColor=none;align=left;verticalAlign=middle;spacingLeft=4;spacingRight=4;overflow=hidden;points=[[0,0.5],[1,0.5]];portConstraint=eastwest;rotatable=0;whiteSpace=wrap;html=1;" vertex="1" parent="yz1jvYl0OhVdzaFBh-Qn-97">
          <mxGeometry y="30" width="140" height="30" as="geometry" />
        </mxCell>
        <mxCell id="yz1jvYl0OhVdzaFBh-Qn-99" value="停运开始时间" style="text;strokeColor=none;fillColor=none;align=left;verticalAlign=middle;spacingLeft=4;spacingRight=4;overflow=hidden;points=[[0,0.5],[1,0.5]];portConstraint=eastwest;rotatable=0;whiteSpace=wrap;html=1;" vertex="1" parent="yz1jvYl0OhVdzaFBh-Qn-97">
          <mxGeometry y="60" width="140" height="30" as="geometry" />
        </mxCell>
        <mxCell id="yz1jvYl0OhVdzaFBh-Qn-100" value="停运结束时间" style="text;strokeColor=none;fillColor=none;align=left;verticalAlign=middle;spacingLeft=4;spacingRight=4;overflow=hidden;points=[[0,0.5],[1,0.5]];portConstraint=eastwest;rotatable=0;whiteSpace=wrap;html=1;" vertex="1" parent="yz1jvYl0OhVdzaFBh-Qn-97">
          <mxGeometry y="90" width="140" height="30" as="geometry" />
        </mxCell>
      </root>
    </mxGraphModel>
  </diagram>
</mxfile>
